<?xml version="1.0" standalone="no"?>
<!DOCTYPE svg PUBLIC "-//W3C//DTD SVG 20010904//EN"
 "http://www.w3.org/TR/2001/REC-SVG-20010904/DTD/svg10.dtd">
<svg version="1.0" xmlns="http://www.w3.org/2000/svg"
 width="200.000000pt" height="200.000000pt" viewBox="0 0 200.000000 200.000000"
 preserveAspectRatio="xMidYMid meet">
<metadata>
Created by potrace 1.16, written by Peter Selinger 2001-2019
</metadata>
<g transform="translate(0.000000,200.000000) scale(0.100000,-0.100000)"
fill="#FF4500" stroke="none">
<path d="M987 1951 c-9 -27 -37 -71 -62 -99 -25 -27 -45 -52 -45 -55 0 -2 9
-7 20 -10 48 -12 32 -87 -19 -87 -39 0 -83 51 -101 116 -22 81 -30 74 -30 -27
0 -100 -7 -119 -45 -119 -41 0 -74 61 -40 74 26 10 16 24 -28 41 -37 14 -187
45 -194 40 -2 -1 24 -28 56 -61 42 -43 72 -89 107 -160 27 -54 53 -102 59
-106 6 -5 3 -8 -7 -8 -15 0 -292 -183 -328 -216 -19 -19 -4 -18 72 2 33 8 62
13 65 11 2 -3 -41 -31 -96 -63 -82 -49 -100 -64 -105 -88 -11 -56 -6 -228 10
-294 16 -70 62 -173 80 -179 6 -2 27 21 48 52 21 30 40 55 43 55 2 0 3 -52 2
-116 l-2 -115 102 -102 c81 -81 104 -99 111 -87 5 8 16 24 24 35 14 19 15 16
16 -40 l0 -60 143 -143 c78 -78 148 -142 154 -142 7 0 82 64 168 142 l155 142
0 56 c1 50 2 53 15 36 8 -10 16 -24 18 -30 3 -6 51 34 107 89 l102 100 -5 124
-6 125 39 -60 c22 -32 45 -59 52 -59 17 0 65 97 83 170 15 59 21 244 9 301 -5
24 -23 39 -105 88 -55 32 -98 60 -96 63 3 2 42 -5 87 -17 45 -12 87 -19 93
-17 11 3 -348 237 -366 237 -9 0 -9 2 0 8 6 4 34 53 62 108 47 95 112 178 156
202 11 6 17 13 14 16 -8 9 -202 -34 -227 -50 l-24 -16 21 -14 c12 -9 21 -21
21 -28 0 -19 -33 -46 -56 -46 -37 0 -44 20 -44 117 0 51 -3 93 -7 93 -5 0 -16
-27 -25 -59 -22 -75 -60 -121 -99 -121 -55 0 -76 73 -24 86 23 6 22 8 -26 67
-28 34 -55 81 -62 105 -6 23 -14 42 -17 42 -3 0 -13 -22 -23 -49z m-62 -710
l72 -40 76 40 77 40 44 -31 c59 -40 86 -76 86 -114 0 -30 -5 -34 -80 -71 -67
-33 -80 -43 -86 -69 l-6 -30 -29 32 -29 32 0 -29 c0 -17 11 -42 26 -60 15 -19
28 -49 32 -77 6 -41 9 -45 20 -31 8 9 16 34 19 56 5 35 10 42 40 52 25 8 39
21 49 44 7 18 21 35 30 39 17 6 55 -17 88 -53 19 -21 19 -22 -11 -59 -16 -20
-46 -48 -67 -62 -33 -21 -37 -28 -32 -55 3 -16 8 -49 12 -72 l6 -42 -38 -7
c-22 -3 -43 -9 -48 -12 -13 -7 22 -20 57 -21 17 -1 27 -6 27 -16 0 -23 -23
-28 -66 -16 -45 12 -58 5 -26 -16 12 -9 22 -20 22 -25 0 -17 -55 -1 -109 33
l-52 31 18 31 c11 18 42 43 75 61 96 52 50 76 -57 31 l-63 -27 -70 27 c-69 27
-102 30 -109 9 -2 -6 24 -25 57 -43 36 -19 66 -43 75 -60 14 -28 14 -29 -37
-60 -54 -34 -108 -50 -108 -33 0 5 10 16 23 25 31 21 18 28 -27 16 -42 -12
-66 -7 -66 15 0 9 16 16 45 21 54 8 51 20 -6 29 l-41 7 6 42 c4 23 9 56 12 74
5 27 2 33 -23 47 -34 17 -103 90 -103 109 1 18 85 78 102 72 8 -3 22 -21 31
-40 10 -22 27 -37 50 -46 30 -11 36 -18 40 -52 3 -22 13 -47 21 -56 15 -14 16
-12 16 25 0 29 8 51 30 80 17 22 30 52 30 69 l0 29 -29 -34 -28 -35 -7 31 c-6
26 -18 36 -86 69 -74 36 -80 41 -80 70 0 17 7 41 16 53 14 20 102 91 113 92 2
0 37 -18 76 -39z m136 -693 c60 -33 70 -50 46 -82 -13 -18 -14 -18 -21 -1 -6
16 -11 14 -37 -18 -20 -24 -39 -37 -55 -37 -27 0 -64 32 -64 55 0 20 -16 19
-24 -2 -6 -15 -8 -15 -16 -3 -23 37 -11 59 48 89 31 17 59 30 61 31 2 0 30
-15 62 -32z"/>
</g>
</svg>
